#!OML:ASF Y:\EmotionMaleHayes\Project 1\Capture day 1\Session 1\Male1.ASF
:FULLY-SPECIFIED
:DEGREES
1719
root -29.1349 16.6022 -3.15945 -175.68 -222.101 -529.017
lowerback 8.70562 1.66118 -9.53224
upperback 2.06078 1.31827 -3.15571
thorax -2.86455 0.737646 1.90378
lowerneck -20.3583 7.56232 9.52395
upperneck 22.5127 10.5934 -10.5487
head 11.8695 4.36589 -3.72138
rclavicle -7.44449e-014 -9.54166e-015
rhumerus -40.9921 -5.90308 -77.3135
rradius 23.7789
rwrist 24.2189
rhand -9.47876 -29.3265
rfingers 7.12502
rthumb 16.4855 -58.6461
lclavicle -7.44449e-014 -9.54166e-015
lhumerus -29.6259 -28.0821 98.9654
lradius 47.3552
lwrist -4.98792
lhand -15.9424 -28.7097
lfingers 7.12502
lthumb 10.2557 1.02025
rfemur -12.631 11.6803 -4.3653
rtibia 17.727
rfoot -11.8322 12.0327
rtoes -4.52658
lfemur 18.3295 -19.8514 -34.7544
ltibia 14.8898
lfoot -10.9465 -20.0185
ltoes 28.5267
1720
root -29.1801 16.6123 -3.05499 -175.616 -222.918 -528.892
lowerback 8.70476 1.62292 -9.17016
upperback 2.28342 1.31888 -3.34365
thorax -2.61862 0.724007 1.51196
lowerneck -20.5996 7.6683 9.85622
upperneck 22.3995 10.6498 -10.7292
head 11.9131 4.38982 -3.82707
rclavicle -3.57812e-014 1.74931e-014
rhumerus -40.0015 -6.06015 -77.0672
rradius 23.8207
rwrist 24.7059
rhand -10.8918 -29.8637
rfingers 7.12502
rthumb 15.1247 -59.2911
lclavicle -3.57812e-014 1.74931e-014
lhumerus -29.2231 -26.8076 97.754
lradius 45.7629
lwrist -6.33169
lhand -15.8312 -28.274
lfingers 7.12502
lthumb 10.363 1.4506
rfemur -12.3887 10.7546 -4.04957
rtibia 18.4
rfoot -12.0375 12.0841
rtoes -4.35848
lfemur 18.3295 -19.8514 -34.7544
ltibia 14.8898
lfoot -10.9465 -20.0185
ltoes 28.5267
1721
root -29.2186 16.6215 -2.95196 -175.644 -223.719 -529.022
lowerback 8.03404 1.55605 -8.65618
upperback 2.90618 1.41224 -3.40031
thorax -1.5905 0.723757 1.18678
lowerneck -21.1604 7.79236 9.89533
upperneck 22.0171 10.7144 -10.7547
head 11.8878 4.40037 -3.81212
rclavicle 2.06239e-014 7.95139e-016
rhumerus -38.3881 -5.80064 -77.0571
rradius 24.139
rwrist 24.1124
rhand -11.9911 -30.4917
rfingers 7.12502
rthumb 14.0656 -59.9958
lclavicle 2.06239e-014 7.95139e-016
lhumerus -28.0292 -25.332 96.3627
lradius 44.0713
lwrist -7.74484
lhand -15.6376 -27.7876
lfingers 7.12502
lthumb 10.5498 1.92761
rfemur -12.0946 9.88492 -3.5695
rtibia 18.7896
rfoot -12.3031 12.0626
rtoes -5.65339
lfemur 18.3295 -19.8514 -34.7544
ltibia 14.8898
lfoot -10.9465 -20.0185
ltoes 28.5267
1722
root -29.2595 16.6391 -2.85002 -176.001 -224.635 -529.262
lowerback 8.35746 1.52807 -8.22399
upperback 3.04422 1.38563 -3.28671
thorax -1.61851 0.710035 1.06322
lowerneck -21.0852 7.8179 9.88214
upperneck 21.7722 10.7561 -10.8321
head 11.7895 4.41508 -3.8284
rclavicle 1.22004e-013 3.49861e-014
rhumerus -37.5464 -5.36065 -76.6783
rradius 24.7071
rwrist 22.7228
rhand -12.0337 -31.1377
rfingers 7.12502
rthumb 14.0246 -60.6446
lclavicle 1.22004e-013 3.49861e-014
lhumerus -27.6001 -23.4697 95.4052
lradius 42.2554
lwrist -9.33851
lhand -15.4789 -27.5833
lfingers 7.12502
lthumb 10.7029 2.12407
rfemur -11.2996 9.3268 -2.85135
rtibia 18.8505
rfoot -12.5853 11.7148
rtoes -6.48919
lfemur 18.3295 -19.8514 -34.7544
ltibia 14.8898
lfoot -10.9465 -20.0185
ltoes 28.5267
1723
root -29.3037 16.648 -2.74875 -176.175 -225.526 -529.479
lowerback 8.57107 1.51381 -7.867
upperback 3.08404 1.37705 -3.1665
thorax -1.6914 0.70784 0.987093
lowerneck -20.883 7.88099 10.0554
upperneck 21.5477 10.8486 -11.0613
head 11.7038 4.45521 -3.92626
rclavicle -5.11871e-015 -3.29983e-014
rhumerus -36.7123 -5.31999 -76.0195
rradius 25.0692
rwrist 21.6733
rhand -12.0104 -31.3868
rfingers 7.12502
rthumb 14.047 -60.8921
lclavicle -5.11871e-015 -3.29983e-014
lhumerus -27.4698 -20.9669 94.4885
lradius 40.5132
lwrist -11.6896
lhand -15.3929 -27.4403
lfingers 7.12502
lthumb 10.7858 2.26275
rfemur -10.6927 8.68702 -2.2045
rtibia 18.7926
rfoot -12.6642 11.3567
rtoes -6.53952
lfemur 18.3295 -19.8514 -34.7544
ltibia 14.8898
lfoot -10.9465 -20.0185
ltoes 28.5267
1724
root -29.3472 16.6629 -2.64646 -176.399 -226.368 -529.687
lowerback 8.82765 1.46605 -7.51786
upperback 3.13105 1.32114 -3.0897
thorax -1.77613 0.682713 0.874119
lowerneck -20.7652 8.05349 10.2996
upperneck 21.5033 11.0546 -11.1738
head 11.7135 4.56 -3.97182
rclavicle -9.11925e-014 -7.15625e-015
rhumerus -35.9271 -4.92042 -75.5747
rradius 25.4485
rwrist 20.5102
rhand -12.4643 -31.7456
rfingers 7.12502
rthumb 13.6095 -61.2807
lclavicle -9.11925e-014 -7.15625e-015
lhumerus -27.251 -18.5566 93.3519
lradius 38.8312
lwrist -13.7541
lhand -15.1549 -26.644
lfingers 7.12502
lthumb 11.0153 3.04696
rfemur -9.97902 8.31157 -1.53013
rtibia 18.6399
rfoot -12.736 10.8887
rtoes -6.8867
lfemur 18.3295 -19.8514 -34.7544
ltibia 14.8898
lfoot -10.9465 -20.0185
ltoes 28.5267
1725
root -29.3852 16.6836 -2.54171 -176.6 -227.199 -529.859
lowerback 9.00443 1.40799 -7.23153
upperback 3.20207 1.25839 -2.9956
thorax -1.79291 0.651539 0.816908
lowerneck -20.8495 8.16436 10.2179
upperneck 21.5874 11.1897 -10.9864
head 11.7597 4.63172 -3.86145
rclavicle 1.02225e-013 3.97569e-015
rhumerus -35.0673 -4.66197 -75.059
rradius 25.7479
rwrist 19.493
rhand -13.0676 -32.4674
rfingers 7.12502
rthumb 13.028 -62.0406
lclavicle 1.02225e-013 3.97569e-015
lhumerus -26.9666 -16.4304 92.3069
lradius 37.1009
lwrist -15.0593
lhand -15.4534 -25.5757
lfingers 7.12502
lthumb 10.7274 4.13036
rfemur -9.22034 8.00161 -0.893094
rtibia 18.4681
rfoot -12.8363 10.4266
rtoes -7.21287
lfemur 13.3866 -19.1602 -25.0461
ltibia 18.6359
lfoot -2.72228 -24.9609
ltoes 34.4248
